<mxfile host="app.diagrams.net" modified="2022-05-12T19:15:02.243Z" agent="5.0 (Windows NT 10.0; Win64; x64) AppleWebKit/537.36 (KHTML, like Gecko) Chrome/101.0.4951.54 Safari/537.36" etag="b83S1agz1h4qPxyvYHw5" version="18.0.3" type="github">
  <diagram id="IR1mzdjfRpLflZi7iiMT" name="Page-1">
    <mxGraphModel dx="981" dy="548" grid="1" gridSize="10" guides="1" tooltips="1" connect="1" arrows="1" fold="1" page="1" pageScale="1" pageWidth="827" pageHeight="1169" background="#F4F1DE" math="0" shadow="0">
      <root>
        <mxCell id="0" />
        <mxCell id="1" parent="0" />
        <mxCell id="eGNEnY-xpS5idLWhx4ZI-6" value="&lt;b&gt;associação&lt;br&gt;&lt;br&gt;&lt;br&gt;&lt;br&gt;&lt;br&gt;&lt;br&gt;&lt;br&gt;&lt;/b&gt;" style="rounded=0;whiteSpace=wrap;html=1;glass=0;sketch=1;fontSize=25;fontColor=#393C56;strokeColor=#000000;strokeWidth=1;fillColor=#F2CC8F;gradientColor=none;" vertex="1" parent="1">
          <mxGeometry x="70" y="50" width="290" height="250" as="geometry" />
        </mxCell>
        <mxCell id="eGNEnY-xpS5idLWhx4ZI-8" value="&lt;p style=&quot;margin:0px;margin-top:4px;text-align:center;text-decoration:underline;&quot;&gt;&lt;b&gt;walkman:Player&lt;/b&gt;&lt;/p&gt;&lt;hr&gt;&lt;p style=&quot;margin:0px;margin-left:8px;&quot;&gt;&lt;b&gt;portatil = true&lt;br&gt;modelo = Ericson&lt;/b&gt;&lt;/p&gt;" style="verticalAlign=top;align=left;overflow=fill;fontSize=12;fontFamily=Helvetica;html=1;rounded=0;glass=0;sketch=1;fontColor=#393C56;strokeColor=#000000;strokeWidth=1;fillColor=#F2CC8F;gradientColor=none;" vertex="1" parent="1">
          <mxGeometry x="414" y="100" width="160" height="90" as="geometry" />
        </mxCell>
        <mxCell id="eGNEnY-xpS5idLWhx4ZI-10" style="edgeStyle=orthogonalEdgeStyle;sketch=1;orthogonalLoop=1;jettySize=auto;html=1;exitX=0;exitY=0.5;exitDx=0;exitDy=0;entryX=0.561;entryY=1.011;entryDx=0;entryDy=0;entryPerimeter=0;fontSize=25;fontColor=#393C56;strokeColor=#E07A5F;fillColor=#F2CC8F;endArrow=none;endFill=0;rounded=1;" edge="1" parent="1" source="eGNEnY-xpS5idLWhx4ZI-9" target="eGNEnY-xpS5idLWhx4ZI-8">
          <mxGeometry relative="1" as="geometry" />
        </mxCell>
        <mxCell id="eGNEnY-xpS5idLWhx4ZI-9" value="&lt;p style=&quot;margin:0px;margin-top:4px;text-align:center;text-decoration:underline;&quot;&gt;&lt;b&gt;charlie_brown_jr:CD&lt;/b&gt;&lt;/p&gt;&lt;hr&gt;&lt;p style=&quot;margin:0px;margin-left:8px;&quot;&gt;&lt;b&gt;album = Acustico MTV&lt;/b&gt;&lt;/p&gt;&lt;p style=&quot;margin:0px;margin-left:8px;&quot;&gt;&lt;b&gt;ano = 2003&lt;/b&gt;&lt;/p&gt;" style="verticalAlign=top;align=left;overflow=fill;fontSize=12;fontFamily=Helvetica;html=1;rounded=0;glass=0;sketch=1;fontColor=#393C56;strokeColor=#000000;strokeWidth=1;fillColor=#F2CC8F;gradientColor=none;" vertex="1" parent="1">
          <mxGeometry x="620" y="190" width="160" height="90" as="geometry" />
        </mxCell>
        <mxCell id="eGNEnY-xpS5idLWhx4ZI-12" value="&lt;b&gt;agregação&lt;br&gt;&lt;br&gt;&lt;br&gt;&lt;br&gt;&lt;br&gt;&lt;/b&gt;" style="rounded=0;whiteSpace=wrap;html=1;glass=0;sketch=1;fontSize=25;strokeColor=#36393d;strokeWidth=1;fillColor=#cdeb8b;" vertex="1" parent="1">
          <mxGeometry x="100" y="110" width="240" height="180" as="geometry" />
        </mxCell>
        <mxCell id="eGNEnY-xpS5idLWhx4ZI-13" value="&lt;b&gt;composição&lt;br&gt;&lt;br&gt;&lt;br&gt;&lt;/b&gt;" style="rounded=0;whiteSpace=wrap;html=1;glass=0;sketch=1;fontSize=25;strokeColor=#36393d;strokeWidth=1;fillColor=#ffff88;" vertex="1" parent="1">
          <mxGeometry x="130" y="170" width="170" height="110" as="geometry" />
        </mxCell>
        <mxCell id="eGNEnY-xpS5idLWhx4ZI-14" value="&lt;p style=&quot;margin:0px;margin-top:4px;text-align:center;text-decoration:underline;&quot;&gt;&lt;b&gt;meu_carrinho:Carrinho&lt;/b&gt;&lt;/p&gt;&lt;hr&gt;&lt;p style=&quot;margin:0px;margin-left:8px;&quot;&gt;&lt;b&gt;total = 30&lt;br&gt;&lt;/b&gt;&lt;/p&gt;" style="verticalAlign=top;align=left;overflow=fill;fontSize=12;fontFamily=Helvetica;html=1;rounded=0;glass=0;sketch=1;strokeColor=#36393d;strokeWidth=1;fillColor=#cdeb8b;" vertex="1" parent="1">
          <mxGeometry x="60" y="350" width="160" height="90" as="geometry" />
        </mxCell>
        <mxCell id="eGNEnY-xpS5idLWhx4ZI-16" style="edgeStyle=orthogonalEdgeStyle;rounded=1;sketch=1;orthogonalLoop=1;jettySize=auto;html=1;exitX=0;exitY=0.5;exitDx=0;exitDy=0;entryX=0.5;entryY=1;entryDx=0;entryDy=0;fontSize=25;fontColor=#393C56;endArrow=diamondThin;endFill=0;strokeColor=#009900;fillColor=#F2CC8F;endSize=16;" edge="1" parent="1" source="eGNEnY-xpS5idLWhx4ZI-15" target="eGNEnY-xpS5idLWhx4ZI-14">
          <mxGeometry relative="1" as="geometry" />
        </mxCell>
        <mxCell id="eGNEnY-xpS5idLWhx4ZI-15" value="&lt;p style=&quot;margin:0px;margin-top:4px;text-align:center;text-decoration:underline;&quot;&gt;&lt;b&gt;livro:Livro&lt;/b&gt;&lt;/p&gt;&lt;hr&gt;&lt;p style=&quot;margin:0px;margin-left:8px;&quot;&gt;&lt;b&gt;titulo = Salem&#39;s Lot&lt;/b&gt;&lt;/p&gt;&lt;p style=&quot;margin:0px;margin-left:8px;&quot;&gt;&lt;b&gt;autor = stephen king&lt;/b&gt;&lt;/p&gt;" style="verticalAlign=top;align=left;overflow=fill;fontSize=12;fontFamily=Helvetica;html=1;rounded=0;glass=0;sketch=1;strokeColor=#36393d;strokeWidth=1;fillColor=#cdeb8b;" vertex="1" parent="1">
          <mxGeometry x="190" y="495" width="160" height="90" as="geometry" />
        </mxCell>
        <mxCell id="eGNEnY-xpS5idLWhx4ZI-17" value="&lt;p style=&quot;margin:0px;margin-top:4px;text-align:center;text-decoration:underline;&quot;&gt;&lt;b&gt;lucas:Funcionário&lt;/b&gt;&lt;/p&gt;&lt;hr&gt;&lt;p style=&quot;margin:0px;margin-left:8px;&quot;&gt;&lt;b&gt;cpf: 111.111.111-11&lt;/b&gt;&lt;/p&gt;&lt;p style=&quot;margin:0px;margin-left:8px;&quot;&gt;&lt;b&gt;cargo: desenvolvedor&lt;br&gt;&lt;/b&gt;&lt;/p&gt;&lt;p style=&quot;margin:0px;margin-left:8px;&quot;&gt;&lt;b&gt;idade: 27&lt;/b&gt;&lt;/p&gt;" style="verticalAlign=top;align=left;overflow=fill;fontSize=12;fontFamily=Helvetica;html=1;rounded=0;glass=0;sketch=1;strokeColor=#36393d;strokeWidth=1;fillColor=#ffff88;" vertex="1" parent="1">
          <mxGeometry x="310.00000000000006" y="340" width="160" height="90" as="geometry" />
        </mxCell>
        <mxCell id="eGNEnY-xpS5idLWhx4ZI-18" style="edgeStyle=orthogonalEdgeStyle;rounded=1;sketch=1;orthogonalLoop=1;jettySize=auto;html=1;exitX=0;exitY=0.5;exitDx=0;exitDy=0;entryX=0.5;entryY=1;entryDx=0;entryDy=0;fontSize=25;fontColor=#393C56;endArrow=diamond;endFill=1;strokeColor=#999900;fillColor=#F2CC8F;endSize=16;jumpSize=4;" edge="1" parent="1" source="eGNEnY-xpS5idLWhx4ZI-20" target="eGNEnY-xpS5idLWhx4ZI-17">
          <mxGeometry relative="1" as="geometry">
            <mxPoint x="499.94000000000005" y="535" as="sourcePoint" />
          </mxGeometry>
        </mxCell>
        <mxCell id="eGNEnY-xpS5idLWhx4ZI-20" value="&lt;p style=&quot;margin:0px;margin-top:4px;text-align:center;text-decoration:underline;&quot;&gt;&lt;b&gt;marina:Dependente&lt;/b&gt;&lt;/p&gt;&lt;hr&gt;&lt;p style=&quot;margin:0px;margin-left:8px;&quot;&gt;&lt;b&gt;cpf: 222.222.222-22&lt;/b&gt;&lt;/p&gt;&lt;p style=&quot;margin:0px;margin-left:8px;&quot;&gt;&lt;b&gt;idade: 1&lt;/b&gt;&lt;/p&gt;" style="verticalAlign=top;align=left;overflow=fill;fontSize=12;fontFamily=Helvetica;html=1;rounded=0;glass=0;sketch=1;strokeColor=#36393d;strokeWidth=1;fillColor=#ffff88;" vertex="1" parent="1">
          <mxGeometry x="430.00000000000006" y="500" width="160" height="90" as="geometry" />
        </mxCell>
        <mxCell id="eGNEnY-xpS5idLWhx4ZI-22" value="&lt;div style=&quot;&quot;&gt;&lt;span style=&quot;background-color: initial;&quot;&gt;&lt;font style=&quot;font-size: 14px;&quot;&gt;Na agregação, se o meu_carrinho for excluído o livro continura a existir. Na composição, se o funcinário é excluído, o dependente também é.&amp;nbsp;&amp;nbsp;&lt;/font&gt;&lt;/span&gt;&lt;/div&gt;" style="text;html=1;align=left;verticalAlign=bottom;whiteSpace=wrap;rounded=0;glass=0;sketch=1;fontSize=25;labelPosition=center;verticalLabelPosition=middle;shadow=0;fillColor=#b0e3e6;strokeColor=#0e8088;" vertex="1" parent="1">
          <mxGeometry x="540" y="350" width="250" height="120" as="geometry" />
        </mxCell>
        <mxCell id="eGNEnY-xpS5idLWhx4ZI-24" value="&lt;p style=&quot;margin:0px;margin-top:4px;text-align:center;text-decoration:underline;&quot;&gt;&lt;b&gt;papo_reto:Musica&lt;/b&gt;&lt;/p&gt;&lt;hr&gt;&lt;p style=&quot;margin:0px;margin-left:8px;&quot;&gt;&lt;b&gt;duração = 3m19s&lt;/b&gt;&lt;/p&gt;" style="verticalAlign=top;align=left;overflow=fill;fontSize=12;fontFamily=Helvetica;html=1;rounded=0;glass=0;sketch=1;strokeColor=#36393d;strokeWidth=1;fillColor=#cdeb8b;" vertex="1" parent="1">
          <mxGeometry x="40" y="800" width="160" height="70" as="geometry" />
        </mxCell>
        <mxCell id="eGNEnY-xpS5idLWhx4ZI-25" value="&lt;h1&gt;agregações:&lt;/h1&gt;&lt;div&gt;diagrama de obrjetos&lt;/div&gt;" style="text;html=1;strokeColor=none;fillColor=none;spacing=5;spacingTop=-20;whiteSpace=wrap;overflow=hidden;rounded=0;shadow=0;glass=0;sketch=1;fontSize=14;fontColor=#393C56;" vertex="1" parent="1">
          <mxGeometry x="40" y="670" width="190" height="80" as="geometry" />
        </mxCell>
        <mxCell id="eGNEnY-xpS5idLWhx4ZI-26" value="&lt;p style=&quot;margin:0px;margin-top:4px;text-align:center;text-decoration:underline;&quot;&gt;&lt;b&gt;proibida_pra_mim:Musica&lt;/b&gt;&lt;/p&gt;&lt;hr&gt;&lt;p style=&quot;margin:0px;margin-left:8px;&quot;&gt;&lt;b&gt;duração = 2m34s&lt;/b&gt;&lt;/p&gt;" style="verticalAlign=top;align=left;overflow=fill;fontSize=12;fontFamily=Helvetica;html=1;rounded=0;glass=0;sketch=1;strokeColor=#36393d;strokeWidth=1;fillColor=#cdeb8b;" vertex="1" parent="1">
          <mxGeometry x="40" y="900" width="160" height="70" as="geometry" />
        </mxCell>
        <mxCell id="eGNEnY-xpS5idLWhx4ZI-27" value="&lt;p style=&quot;margin:0px;margin-top:4px;text-align:center;text-decoration:underline;&quot;&gt;&lt;b&gt;charlie_brown.jr:Artista&lt;/b&gt;&lt;/p&gt;&lt;hr&gt;&lt;p style=&quot;margin:0px;margin-left:8px;&quot;&gt;&lt;b&gt;vocalista = Chorao&lt;/b&gt;&lt;/p&gt;&lt;p style=&quot;margin:0px;margin-left:8px;&quot;&gt;&lt;b&gt;cidade = Santos&lt;/b&gt;&lt;/p&gt;" style="verticalAlign=top;align=left;overflow=fill;fontSize=12;fontFamily=Helvetica;html=1;rounded=0;glass=0;sketch=1;strokeColor=#36393d;strokeWidth=1;fillColor=#cdeb8b;" vertex="1" parent="1">
          <mxGeometry x="570" y="670" width="160" height="90" as="geometry" />
        </mxCell>
        <mxCell id="eGNEnY-xpS5idLWhx4ZI-28" value="&lt;p style=&quot;margin:0px;margin-top:4px;text-align:center;text-decoration:underline;&quot;&gt;&lt;b&gt;acustico_mtv:Album&lt;/b&gt;&lt;/p&gt;&lt;hr&gt;&lt;p style=&quot;margin:0px;margin-left:8px;&quot;&gt;&lt;b&gt;ano = 2003&lt;/b&gt;&lt;/p&gt;" style="verticalAlign=top;align=left;overflow=fill;fontSize=12;fontFamily=Helvetica;html=1;rounded=0;glass=0;sketch=1;strokeColor=#36393d;strokeWidth=1;fillColor=#cdeb8b;" vertex="1" parent="1">
          <mxGeometry x="300" y="700" width="160" height="70" as="geometry" />
        </mxCell>
        <mxCell id="eGNEnY-xpS5idLWhx4ZI-31" style="edgeStyle=orthogonalEdgeStyle;rounded=1;sketch=1;orthogonalLoop=1;jettySize=auto;html=1;exitX=1;exitY=0.5;exitDx=0;exitDy=0;entryX=-0.006;entryY=0.423;entryDx=0;entryDy=0;fontSize=25;fontColor=#393C56;endArrow=diamondThin;endFill=0;strokeColor=#009900;fillColor=#F2CC8F;endSize=16;entryPerimeter=0;" edge="1" parent="1" source="eGNEnY-xpS5idLWhx4ZI-24" target="eGNEnY-xpS5idLWhx4ZI-28">
          <mxGeometry relative="1" as="geometry">
            <mxPoint x="200" y="550" as="sourcePoint" />
            <mxPoint x="150" y="450" as="targetPoint" />
          </mxGeometry>
        </mxCell>
        <mxCell id="eGNEnY-xpS5idLWhx4ZI-32" style="edgeStyle=orthogonalEdgeStyle;rounded=1;sketch=1;orthogonalLoop=1;jettySize=auto;html=1;exitX=1;exitY=0.5;exitDx=0;exitDy=0;entryX=0.459;entryY=1.038;entryDx=0;entryDy=0;fontSize=25;fontColor=#393C56;endArrow=diamondThin;endFill=0;strokeColor=#009900;fillColor=#F2CC8F;endSize=16;entryPerimeter=0;" edge="1" parent="1" source="eGNEnY-xpS5idLWhx4ZI-26" target="eGNEnY-xpS5idLWhx4ZI-28">
          <mxGeometry relative="1" as="geometry">
            <mxPoint x="260" y="915" as="sourcePoint" />
            <mxPoint x="309.03999999999996" y="759.6100000000001" as="targetPoint" />
          </mxGeometry>
        </mxCell>
        <mxCell id="eGNEnY-xpS5idLWhx4ZI-33" style="edgeStyle=orthogonalEdgeStyle;rounded=1;sketch=1;orthogonalLoop=1;jettySize=auto;html=1;exitX=1.007;exitY=0.418;exitDx=0;exitDy=0;entryX=0;entryY=0.5;entryDx=0;entryDy=0;fontSize=25;fontColor=#393C56;endArrow=diamondThin;endFill=0;strokeColor=#009900;fillColor=#F2CC8F;endSize=16;exitPerimeter=0;" edge="1" parent="1" source="eGNEnY-xpS5idLWhx4ZI-28" target="eGNEnY-xpS5idLWhx4ZI-27">
          <mxGeometry relative="1" as="geometry">
            <mxPoint x="450" y="910" as="sourcePoint" />
            <mxPoint x="383.44000000000005" y="802.6599999999999" as="targetPoint" />
          </mxGeometry>
        </mxCell>
        <mxCell id="eGNEnY-xpS5idLWhx4ZI-34" value="&lt;p style=&quot;margin:0px;margin-top:4px;text-align:center;text-decoration:underline;&quot;&gt;&lt;b&gt;musicas_favoritas:Playlist&lt;/b&gt;&lt;/p&gt;&lt;hr&gt;&lt;p style=&quot;margin:0px;margin-left:8px;&quot;&gt;&lt;b&gt;criada = 12/05/2021&lt;/b&gt;&lt;/p&gt;" style="verticalAlign=top;align=left;overflow=fill;fontSize=12;fontFamily=Helvetica;html=1;rounded=0;glass=0;sketch=1;strokeColor=#36393d;strokeWidth=1;fillColor=#cdeb8b;" vertex="1" parent="1">
          <mxGeometry x="220" y="1070" width="160" height="80" as="geometry" />
        </mxCell>
        <mxCell id="eGNEnY-xpS5idLWhx4ZI-35" style="edgeStyle=orthogonalEdgeStyle;rounded=1;sketch=1;orthogonalLoop=1;jettySize=auto;html=1;exitX=0.5;exitY=1;exitDx=0;exitDy=0;entryX=0;entryY=0.5;entryDx=0;entryDy=0;fontSize=25;fontColor=#393C56;endArrow=diamondThin;endFill=0;strokeColor=#009900;fillColor=#F2CC8F;endSize=16;" edge="1" parent="1" source="eGNEnY-xpS5idLWhx4ZI-26" target="eGNEnY-xpS5idLWhx4ZI-34">
          <mxGeometry relative="1" as="geometry">
            <mxPoint x="471.1200000000001" y="759.26" as="sourcePoint" />
            <mxPoint x="600" y="765" as="targetPoint" />
          </mxGeometry>
        </mxCell>
        <mxCell id="eGNEnY-xpS5idLWhx4ZI-36" value="&lt;p style=&quot;margin:0px;margin-top:4px;text-align:center;text-decoration:underline;&quot;&gt;&lt;b&gt;camisa_10_joga_bola_até_na_chuva:Album&lt;/b&gt;&lt;/p&gt;&lt;hr&gt;&lt;p style=&quot;margin:0px;margin-left:8px;&quot;&gt;&lt;b&gt;ano = 2009&lt;/b&gt;&lt;/p&gt;" style="verticalAlign=top;align=left;overflow=fill;fontSize=12;fontFamily=Helvetica;html=1;rounded=0;glass=0;sketch=1;strokeColor=#36393d;strokeWidth=1;fillColor=#cdeb8b;" vertex="1" parent="1">
          <mxGeometry x="450" y="850" width="300" height="70" as="geometry" />
        </mxCell>
        <mxCell id="eGNEnY-xpS5idLWhx4ZI-38" value="&lt;p style=&quot;margin:0px;margin-top:4px;text-align:center;text-decoration:underline;&quot;&gt;&lt;b&gt;me_encontra:Musica&lt;/b&gt;&lt;/p&gt;&lt;hr&gt;&lt;p style=&quot;margin:0px;margin-left:8px;&quot;&gt;&lt;b&gt;duração = 3m31s&lt;/b&gt;&lt;/p&gt;" style="verticalAlign=top;align=left;overflow=fill;fontSize=12;fontFamily=Helvetica;html=1;rounded=0;glass=0;sketch=1;strokeColor=#36393d;strokeWidth=1;fillColor=#cdeb8b;" vertex="1" parent="1">
          <mxGeometry x="585" y="970" width="160" height="70" as="geometry" />
        </mxCell>
        <mxCell id="eGNEnY-xpS5idLWhx4ZI-39" style="edgeStyle=orthogonalEdgeStyle;rounded=1;sketch=1;orthogonalLoop=1;jettySize=auto;html=1;exitX=0.5;exitY=0;exitDx=0;exitDy=0;entryX=0.5;entryY=1;entryDx=0;entryDy=0;fontSize=25;fontColor=#393C56;endArrow=diamondThin;endFill=0;strokeColor=#009900;fillColor=#F2CC8F;endSize=16;" edge="1" parent="1" source="eGNEnY-xpS5idLWhx4ZI-38" target="eGNEnY-xpS5idLWhx4ZI-36">
          <mxGeometry relative="1" as="geometry">
            <mxPoint x="190" y="900" as="sourcePoint" />
            <mxPoint x="383.44000000000005" y="802.6599999999999" as="targetPoint" />
          </mxGeometry>
        </mxCell>
        <mxCell id="eGNEnY-xpS5idLWhx4ZI-40" style="edgeStyle=orthogonalEdgeStyle;rounded=1;sketch=1;orthogonalLoop=1;jettySize=auto;html=1;exitX=0.5;exitY=1;exitDx=0;exitDy=0;entryX=0.998;entryY=0.43;entryDx=0;entryDy=0;fontSize=25;fontColor=#393C56;endArrow=diamondThin;endFill=0;strokeColor=#009900;fillColor=#F2CC8F;endSize=16;entryPerimeter=0;" edge="1" parent="1" source="eGNEnY-xpS5idLWhx4ZI-38" target="eGNEnY-xpS5idLWhx4ZI-34">
          <mxGeometry relative="1" as="geometry">
            <mxPoint x="675" y="980" as="sourcePoint" />
            <mxPoint x="610" y="930" as="targetPoint" />
          </mxGeometry>
        </mxCell>
        <mxCell id="eGNEnY-xpS5idLWhx4ZI-41" style="edgeStyle=orthogonalEdgeStyle;rounded=1;sketch=1;orthogonalLoop=1;jettySize=auto;html=1;exitX=0.561;exitY=0.009;exitDx=0;exitDy=0;entryX=0.63;entryY=1.018;entryDx=0;entryDy=0;fontSize=25;fontColor=#393C56;endArrow=diamondThin;endFill=0;strokeColor=#009900;fillColor=#F2CC8F;endSize=16;exitPerimeter=0;entryPerimeter=0;" edge="1" parent="1" source="eGNEnY-xpS5idLWhx4ZI-36" target="eGNEnY-xpS5idLWhx4ZI-27">
          <mxGeometry relative="1" as="geometry">
            <mxPoint x="675" y="980" as="sourcePoint" />
            <mxPoint x="610" y="930" as="targetPoint" />
          </mxGeometry>
        </mxCell>
        <mxCell id="eGNEnY-xpS5idLWhx4ZI-42" value="&lt;p style=&quot;margin:0px;margin-top:4px;text-align:center;text-decoration:underline;&quot;&gt;&lt;b&gt;so_os_loucos_sabem:Musica&lt;/b&gt;&lt;/p&gt;&lt;hr&gt;&lt;p style=&quot;margin:0px;margin-left:8px;&quot;&gt;&lt;b&gt;duração = 3m31s&lt;/b&gt;&lt;/p&gt;" style="verticalAlign=top;align=left;overflow=fill;fontSize=12;fontFamily=Helvetica;html=1;rounded=0;glass=0;sketch=1;strokeColor=#36393d;strokeWidth=1;fillColor=#cdeb8b;" vertex="1" parent="1">
          <mxGeometry x="320" y="980" width="210" height="70" as="geometry" />
        </mxCell>
        <mxCell id="eGNEnY-xpS5idLWhx4ZI-43" style="edgeStyle=orthogonalEdgeStyle;rounded=1;sketch=1;orthogonalLoop=1;jettySize=auto;html=1;exitX=0.586;exitY=-0.001;exitDx=0;exitDy=0;entryX=0.202;entryY=1.004;entryDx=0;entryDy=0;fontSize=25;fontColor=#393C56;endArrow=diamondThin;endFill=0;strokeColor=#009900;fillColor=#F2CC8F;endSize=16;exitPerimeter=0;entryPerimeter=0;" edge="1" parent="1" source="eGNEnY-xpS5idLWhx4ZI-42" target="eGNEnY-xpS5idLWhx4ZI-36">
          <mxGeometry relative="1" as="geometry">
            <mxPoint x="675" y="980" as="sourcePoint" />
            <mxPoint x="610" y="930" as="targetPoint" />
          </mxGeometry>
        </mxCell>
      </root>
    </mxGraphModel>
  </diagram>
</mxfile>
